<?xml version="1.0" encoding="utf-8"?>
<!-- Generator: Adobe Illustrator 26.5.0, SVG Export Plug-In . SVG Version: 6.00 Build 0)  -->
<svg version="1.1" id="Capa_1" xmlns="http://www.w3.org/2000/svg" xmlns:xlink="http://www.w3.org/1999/xlink" x="0px" y="0px"
	 viewBox="0 0 1218.9 841.9" style="enable-background:new 0 0 1218.9 841.9;" xml:space="preserve">
<style type="text/css">
	.st0{fill:none;stroke:#000000;stroke-miterlimit:10;}
	.st1{font-family:'AbrilFatface-Regular';}
	.st2{font-size:21.161px;}
	.st3{fill:none;stroke:#000000;stroke-width:4;stroke-miterlimit:10;}
	.st4{font-size:29.8744px;}
	.st5{font-size:17px;}
	.st6{fill:#FFFFFF;}
</style>
<text transform="matrix(1 0 0 1 120.5222 670.3765)" class="st1 st2">1500</text>
<text transform="matrix(1 0 0 1 315.695 670.5884)" class="st1 st2">1600</text>
<text transform="matrix(1 0 0 1 503.4919 671.0112)" class="st1 st2">1700</text>
<text transform="matrix(1 0 0 1 753.9714 671.8579)" class="st1 st2">1850</text>
<text transform="matrix(1 0 0 1 667.4978 671.4351)" class="st1 st2">1800</text>
<text transform="matrix(1 0 0 1 586.0906 671.2231)" class="st1 st2">1750</text>
<text transform="matrix(1 0 0 1 411.9431 670.8003)" class="st1 st2">1650</text>
<text transform="matrix(1 0 0 1 219.7068 671.647)" class="st1 st2">1550</text>
<text transform="matrix(1 0 0 1 850.0681 671.0112)" class="st1 st2">1900</text>
<text transform="matrix(1 0 0 1 937.4607 672.0698)" class="st1 st2">1950</text>
<text transform="matrix(1 0 0 1 1033.2605 670.3765)" class="st1 st2">2000</text>
<line class="st3" x1="1085.7" y1="625.8" x2="120" y2="625.8"/>
<text transform="matrix(1 0 0 1 277.3933 157.4282)" class="st1 st4">Sucesos en la historia donde hubo antropofagia </text>
<text transform="matrix(1 0 0 1 943.1552 497.0111)"><tspan x="0" y="0" class="st1 st2">La tragedia</tspan><tspan x="-5.6" y="25.4" class="st1 st2"> de los Andes</tspan></text>
<text transform="matrix(1 0 0 1 809.938 498.8606)"><tspan x="0" y="0" class="st1 st2">El asedio de </tspan><tspan x="1.8" y="25.4" class="st1 st2">Leningrado</tspan></text>
<text transform="matrix(1 0 0 1 388.7722 496.4937)"><tspan x="0" y="0" class="st1 st2">El ballenero </tspan><tspan x="33.3" y="25.4" class="st1 st2">Essex</tspan></text>
<text transform="matrix(1 0 0 1 652.8927 496.4946)"><tspan x="0" y="0" class="st1 st2">La expedición</tspan><tspan x="22.3" y="25.4" class="st1 st2"> Franklin</tspan></text>
<text transform="matrix(1 0 0 1 246.2328 511.8139)" class="st1 st2">Jamestown</text>
<rect x="247.6" y="306.4" width="98.7" height="165.4"/>
<rect x="397.4" y="394.5" width="98.7" height="77.5"/>
<rect x="667.5" y="350.1" width="98.7" height="121.9"/>
<rect x="806.8" y="221.8" width="98.7" height="249.9"/>
<rect x="936.9" y="394.5" width="98.7" height="78"/>
<image style="overflow:visible;" width="1920" height="1152" xlink:href="Bandera-de-Reino-Unido.png"  transform="matrix(5.597193e-02 0 0 6.103083e-02 668.698 534.9086)">
</image>
<image style="overflow:visible;" width="1200" height="632" xlink:href="eeuu.png"  transform="matrix(9.171475e-02 0 0 0.111 396.2516 536.0995)">
</image>
<image style="overflow:visible;" width="1200" height="800" xlink:href="60912B1CA8B60E2F.jpg"  transform="matrix(8.682800e-02 0 0 8.846448e-02 944.1278 533.78)">
</image>
<image style="overflow:visible;" width="274" height="184" xlink:href="rusia.png"  transform="matrix(0.398 0 0 0.3743 812.3707 536.0995)">
</image>
<image style="overflow:visible;" width="1200" height="632" xlink:href="eeuu.png"  transform="matrix(9.171475e-02 0 0 0.111 247.1853 536.0995)">
</image>
<text transform="matrix(1 0 0 1 198.409 271.7979)" class="st1 st5">Lorem ipsum</text>
<text transform="matrix(1 0 0 1 814.1985 259.3709)"><tspan x="0" y="0" class="st6 st1 st5">1.000.000</tspan><tspan x="9.3" y="20.4" class="st6 st1 st5">muertes</tspan></text>
<text transform="matrix(1 0 0 1 972.8735 416.7477)"><tspan x="0" y="0" class="st6 st1 st5">29 </tspan><tspan x="-21.2" y="20.4" class="st6 st1 st5">muertes</tspan></text>
<text transform="matrix(1 0 0 1 443.2605 416.7475)"><tspan x="0" y="0" class="st6 st1 st5">8 </tspan><tspan x="-19.7" y="20.4" class="st6 st1 st5">sobre- </tspan><tspan x="-28.8" y="40.8" class="st6 st1 st5">vivientes</tspan></text>
<text transform="matrix(1 0 0 1 703.3881 382.2394)"><tspan x="0" y="0" class="st6 st1 st5">128</tspan><tspan x="-19.2" y="20.4" class="st6 st1 st5">muertes</tspan></text>
<text transform="matrix(1 0 0 1 256.2506 350.0959)" class="st6 st1 st5">Indefinido</text>
</svg>
